<?xml version="1.0" encoding="UTF-8"?>
<svg id="Layer_1" data-name="Layer 1" xmlns="http://www.w3.org/2000/svg" viewBox="0 0 313.84 81.38">
  <defs>
    <style>
      .cls-1 {
        fill: #505dff;
      }

      .cls-1, .cls-2, .cls-3 {
        stroke-width: 0px;
      }

      .cls-2 {
        fill: #b3c0ff;
      }

      .cls-3 {
        fill: #000;
      }
    </style>
  </defs>
  <path class="cls-1" d="M31.31,51.68C47.8,35.19,64.23,18.77,80.65,2.35c.13.07.27.14.4.21.06.45.18.89.18,1.34,0,24.97,0,49.94,0,74.91,0,1.66-.89,2.56-2.54,2.56-25.02,0-50.04,0-75.06,0-.36,0-.73-.06-1.24-.31,2.08-2.74,4.61-5.02,6.97-7.44,2.39-2.44,4.83-4.84,7.25-7.26,2.45-2.45,4.91-4.9,7.36-7.36,2.42-2.42,4.84-4.84,7.33-7.33Z"/>
  <path class="cls-2" d="M78.34.13c-.05.29,0,.68-.17.85-2.07,2.13-4.16,4.24-6.29,6.32-.3.29-.84.45-1.26.45-23.07.02-46.15.01-69.22.03-.94,0-1.37-.3-1.25-1.26C.39,4.63-.43,2.62.75.85c.23-.35.78-.48,1.44-.72,25.55,0,50.85,0,76.15,0Z"/>
  <path class="cls-2" d="M36.96,10.4h31.58c-.35.46-.51.74-.73.95-2.1,2.12-4.19,4.24-6.33,6.32-.34.33-.89.62-1.35.62-19.94.03-39.88.02-59.83.01-.04,0-.09-.03-.22-.07v-7.83h36.86Z"/>
  <path class="cls-2" d="M43.26,0h36.99c-.41.46-.6.74-.85.95-2.46,2.12-4.91,4.24-7.41,6.32-.4.33-1.04.62-1.58.62-23.36.03-46.72.02-70.07.01-.05,0-.1-.03-.26-.07V0h43.18Z"/>
  <path class="cls-3" d="M176.21,37.37c-.94-2.39-2.81-1.34-4.11-1.18-1.22.15-2.22,1.03-2.19,2.73.1,6.14.04,12.29.04,18.43,0,.76,0,1.52,0,2.37h-11.1V27.71h9.97c.27.79.57,1.66.86,2.53,5.76-4.69,13.32-4.4,16.5.77.47-.4.98-.73,1.37-1.17,3.27-3.64,12.98-4.1,15.58.47,1.04,1.83,2.12,3.95,2.19,5.97.25,7.76.1,15.52.1,23.41h-10.73c0-6.12.02-12.24-.02-18.35,0-.96-.42-1.93-.41-2.89.04-2.86-1.99-2.59-3.72-2.39-1.83.21-2.88,1.34-2.87,3.36.03,6.69.01,13.37.01,20.23h-11.33c0-7.29,0-14.71-.15-22.28Z"/>
  <path class="cls-2" d="M27.28,20.96h30.89c-.75.78-1.22,1.28-1.71,1.77-1.97,1.95-3.64,4.64-6.02,5.63-2.33.97-5.38.23-8.11.23-13.53,0-27.05,0-40.58,0H.08v-7.63h27.2Z"/>
  <path class="cls-2" d="M14.08,31.52h33.25c.1.11.21.22.31.32-.5.4-1.05.77-1.51,1.21-2.06,2.01-3.77,4.83-6.23,5.84-2.47,1.02-5.67.24-8.55.24-9.91,0-19.83,0-29.74,0H.09v-7.63h13.99Z"/>
  <path class="cls-3" d="M247,51.15c1.62-.82,3.11-1.5,5.05-2.39,1.17,1.6,2.68,3.53,4.01,5.58.22.34-.12,1.31-.5,1.73-2.26,2.53-5.31,3.8-8.54,4.15-5.47.59-10.83.1-15.26-3.74-2.72-2.36-4.42-5.51-4.77-8.96-.45-4.52-.5-9.17,1.96-13.35,2.6-4.4,6.37-6.88,11.57-7.02,3.89-.11,7.73-.18,11.12,2.31,3.41,2.5,5.08,5.95,5.52,9.98.27,2.45.05,4.96.05,7.62h-18.86c1,3.45,3.51,4.65,8.64,4.08M242.52,40.69h3.86c.57-3.34-.64-4.14-3.15-4.62-2.87-.55-4.56,1.08-5.08,4.62h4.37Z"/>
  <path class="cls-3" d="M304.8,59.84c-10.78,2.45-21.3-3.04-21.45-14.82-.06-4.72.41-9.17,3.65-13.02,2.25-2.67,5.03-4.48,8.33-4.73,3.21-.24,6.61.04,9.71.88,5.87,1.59,7.69,6,8.57,10.8.48,2.61.09,5.38.09,8.19h-18.8c1.16,5.43,9.06,5.6,13.31,1.2,1.48,2.01,2.98,3.95,4.32,5.99.22.34-.1,1.48-.49,1.71-2.29,1.35-4.68,2.54-7.24,3.8M296.76,40.69h6.1c.6-3.12-.68-4.33-3.5-4.63-2.81-.3-4.45,1.41-4.66,4.63h2.06Z"/>
  <path class="cls-3" d="M137.15,51.37c.89.04,1.59.09,2.29.04,2.14-.14,3.45-1.54,3.45-3.7,0-6.6,0-13.19,0-19.94h10.58v31.88h-10.06v-2.64c-1.11.83-1.94,1.69-2.95,2.15-3.7,1.67-7.59,1.85-11.23.08-3.61-1.75-4.93-5.18-4.98-9.01-.09-7.45-.03-14.89-.03-22.48h10.73v10.1c0,2.87.11,5.75-.04,8.62-.1,2.02.49,3.6,2.23,4.89Z"/>
  <path class="cls-3" d="M103.69,44.88v5.99h17.6v8.82h-28.67V16.56h11.07v28.33Z"/>
  <path class="cls-2" d="M22.59,49.7H.1v-7.53h36.91c-1.08,1.08-2.08,2.08-3.08,3.08-1.49,1.48-2.74,3.53-4.53,4.27-1.8.74-4.13.18-6.23.19-.15,0-.29,0-.59,0Z"/>
  <path class="cls-3" d="M267.91,27.62h3.06c.22.94.43,1.81.78,3.3,2.42-4.11,5.88-4.04,9.81-3.64-.21,3.56-.42,7.19-.64,11.07-1.62,0-3.22-.02-4.83,0-2.56.04-3.93,1.41-3.93,3.93,0,5.75,0,11.49,0,17.39h-11.05V27.62h6.81Z"/>
  <path class="cls-2" d="M.93,52.64c8.53,0,16.91,0,25.72,0-2.65,2.61-5.05,4.99-7.47,7.34-.18.17-.51.27-.77.27-6.09.01-12.18.01-18.41.01,0-2.38-.02-4.66.03-6.94,0-.23.49-.46.89-.69Z"/>
  <path class="cls-3" d="M222.22,36.02v23.66h-11.06v-31.92h11.06v8.26Z"/>
  <path class="cls-2" d="M3.53,62.9h12.71c-1.09,1.11-1.88,1.92-2.68,2.72-1.73,1.73-3.18,4.13-5.26,4.98-2.14.87-4.91.21-7.4.22-.24,0-.48,0-.8,0v-7.92h3.44Z"/>
  <path class="cls-3" d="M220.91,23.57c-2.43,1.95-5.06,1.65-7.46.74-2.02-.78-2.92-2.76-2.89-4.99.03-3.05,2.26-5.31,5.32-5.19,1.54.06,3.35.1,4.54.89,3.08,2.03,3.2,5.68.49,8.56Z"/>
  <path class="cls-3" d="M236.22,14.09c4-.77,6.53.55,8,4.23.71,1.76,2.01,3.28,3.16,5.11-2.85,0-5.57.23-8.21-.11-1.16-.15-2.29-1.36-3.21-2.3-2.02-2.07-3.91-4.29-6.28-6.92h6.53Z"/>
  <path class="cls-2" d="M3.3,75.88c-1.06,1.08-2.06,2.08-3.19,3.22v-5.54h5.5c-.8.8-1.52,1.52-2.31,2.31Z"/>
</svg>